#!OML:ASF X:\für Bonn\!DataBase\2005_08_12_Daniel\c3d\Daniel.ASF
:FULLY-SPECIFIED
:DEGREES
88
root -3.84821 17.3164 1.01603 123.816 -80.2715 -142.26
lowerback 29.3982 -9.04094 -1.71302
upperback 8.22234 -13.0312 0.646947
thorax -6.03243 -6.74826 5.99853
lowerneck 2.65366 10.6169 -1.26052
upperneck 7.77116 14.2313 -5.93269
head 2.41134 6.79412 -1.46522
rclavicle -1.65737e-013 4.81059e-014
rhumerus -41.6559 22.7556 -96.8793
rradius 68.2557
rwrist 3.27873
rhand -34.938 41.333
rfingers 7.12502
rthumb -8.08495 11.5077
lclavicle -1.65737e-013 4.81059e-014
lhumerus 3.05531 -10.255 76.6957
lradius 110.991
lwrist 39.8608
lhand -15.3119 -11.1952
lfingers 7.12502
lthumb 10.8639 18.5038
rfemur -27.2408 -1.96212 17.6503
rtibia 66.3136
rfoot 8.28212 -6.5694
rtoes -8.32914
lfemur 4.23121 -9.84906 -17.996
ltibia 33.031
lfoot -27.458 11.6642
ltoes 9.50074
89
root -3.85648 17.3122 0.992978 127.015 -80.2521 -144.919
lowerback 28.7125 -8.63813 -1.53196
upperback 7.86355 -12.4008 0.673888
thorax -6.20825 -6.40058 5.66822
lowerneck 2.76937 10.3606 -1.11119
upperneck 7.92552 13.8943 -5.97119
head 2.44721 6.6251 -1.50998
rclavicle 8.97016e-014 -2.74323e-014
rhumerus -40.0479 23.4107 -97.1402
rradius 69.6775
rwrist 2.27487
rhand -34.6938 41.202
rfingers 7.12502
rthumb -7.84928 11.3677
lclavicle 8.97016e-014 -2.74323e-014
lhumerus 1.42716 -11.2134 76.7802
lradius 110.465
lwrist 39.7411
lhand -15.3655 -10.6532
lfingers 7.12502
lthumb 10.8122 19.0485
rfemur -25.8103 -1.03841 17.3024
rtibia 64.0605
rfoot 8.38882 -6.75328
rtoes -8.5644
lfemur 3.65584 -9.77292 -18.1956
ltibia 33.1535
lfoot -27.6776 11.8544
ltoes 9.4972
90
root -3.86354 17.31 0.97034 130.211 -80.2378 -147.616
lowerback 28.0721 -8.23195 -1.3664
upperback 7.52876 -11.778 0.67347
thorax -6.37029 -6.06149 5.32623
lowerneck 2.89978 10.0938 -0.918651
upperneck 8.03348 13.5452 -6.06127
head 2.47171 6.45259 -1.58013
rclavicle -3.762e-014 1.92821e-014
rhumerus -38.2508 24.1586 -97.2964
rradius 70.8403
rwrist 1.25844
rhand -34.5702 41.0428
rfingers 7.12502
rthumb -7.72991 11.2041
lclavicle -3.762e-014 1.92821e-014
lhumerus -0.235105 -12.1156 76.8565
lradius 109.933
lwrist 39.7074
lhand -15.2905 -10.114
lfingers 7.12502
lthumb 10.8846 19.5839
rfemur -24.3973 -0.126562 16.9399
rtibia 61.8328
rfoot 8.373 -6.84113
rtoes -8.57314
lfemur 3.14352 -9.67044 -18.4176
ltibia 33.2248
lfoot -27.8873 12.0238
ltoes 9.4381
91
root -3.87116 17.3084 0.94594 133.454 -80.1902 -150.454
lowerback 27.5242 -7.7989 -1.20031
upperback 7.21695 -11.1294 0.629203
thorax -6.55219 -5.71291 4.94389
lowerneck 3.03108 9.80896 -0.711067
upperneck 8.15038 13.1721 -6.13046
head 2.49654 6.26922 -1.6469
rclavicle -1.33037e-013 1.5704e-014
rhumerus -36.489 24.8933 -97.358
rradius 72.0923
rwrist 0.328697
rhand -34.5434 40.6204
rfingers 7.12502
rthumb -7.70408 10.7807
lclavicle -1.33037e-013 1.5704e-014
lhumerus -2.01519 -13.0314 76.9571
lradius 109.373
lwrist 39.6863
lhand -15.0388 -9.57701
lfingers 7.12502
lthumb 11.1274 20.108
rfemur -22.9395 0.779525 16.5893
rtibia 59.6419
rfoot 8.17567 -6.78696
rtoes -8.3635
lfemur 2.74803 -9.54793 -18.6671
ltibia 33.2696
lfoot -28.0409 12.2235
ltoes 9.36135
92
root -3.87913 17.3042 0.919544 136.787 -80.1325 -153.426
lowerback 27.0018 -7.33764 -1.07316
upperback 6.94422 -10.4623 0.569319
thorax -6.68992 -5.36223 4.56131
lowerneck 3.13122 9.52348 -0.495994
upperneck 8.25289 12.8018 -6.22759
head 2.52389 6.08737 -1.72284
rclavicle 1.31074e-013 -5.725e-014
rhumerus -34.7039 25.6929 -97.2463
rradius 73.4568
rwrist -0.559545
rhand -34.6559 40.0687
rfingers 7.12502
rthumb -7.81266 10.2331
lclavicle 1.31074e-013 -5.725e-014
lhumerus -3.82201 -13.9495 77.0323
lradius 108.844
lwrist 39.6927
lhand -14.7408 -8.99757
lfingers 7.12502
lthumb 11.4147 20.6717
rfemur -21.4997 1.67946 16.2295
rtibia 57.5101
rfoot 7.77644 -6.65942
rtoes -8.37925
lfemur 2.40514 -9.4183 -18.9501
ltibia 33.3224
lfoot -28.2409 12.3914
ltoes 9.33374
93
root -3.88691 17.2954 0.892754 140.138 -80.0568 -156.431
lowerback 26.524 -6.87109 -0.953912
upperback 6.67506 -9.79395 0.49534
thorax -6.83704 -5.01302 4.17579
lowerneck 3.20494 9.22601 -0.313945
upperneck 8.32563 12.4149 -6.30566
head 2.54014 5.89808 -1.78759
rclavicle 2.59166e-014 1.19271e-014
rhumerus -32.8423 26.4884 -96.98
rradius 74.7785
rwrist -1.37793
rhand -34.8587 39.4857
rfingers 7.12502
rthumb -8.00836 9.65746
lclavicle 2.59166e-014 1.19271e-014
lhumerus -5.65238 -14.8993 77.0638
lradius 108.301
lwrist 39.7751
lhand -14.3561 -8.47311
lfingers 7.12502
lthumb 11.7858 21.1753
rfemur -20.1311 2.5336 15.8687
rtibia 55.4719
rfoot 7.2553 -6.4105
rtoes -8.67651
lfemur 2.03615 -9.25408 -19.2475
ltibia 33.4213
lfoot -28.4145 12.572
ltoes 9.24952
94
root -3.8942 17.2821 0.863631 143.453 -79.9602 -159.414
lowerback 26.0796 -6.3898 -0.854115
upperback 6.41685 -9.11512 0.411492
thorax -6.97835 -4.6617 3.79247
lowerneck 3.24299 8.91944 -0.0742636
upperneck 8.43973 12.0225 -6.41973
head 2.58219 5.70498 -1.87149
rclavicle -3.74709e-014 2.52457e-014
rhumerus -30.9175 27.1938 -96.5261
rradius 76.0804
rwrist -2.02593
rhand -35.0826 38.908
rfingers 7.12502
rthumb -8.22446 9.08811
lclavicle -3.74709e-014 2.52457e-014
lhumerus -7.40656 -15.9191 77.0507
lradius 107.713
lwrist 39.8968
lhand -14.0306 -7.9922
lfingers 7.12502
lthumb 12.0996 21.638
rfemur -18.8506 3.3657 15.5249
rtibia 53.558
rfoot 6.5811 -6.18393
rtoes -9.04592
lfemur 1.65282 -9.12048 -19.5522
ltibia 33.5653
lfoot -28.6125 12.7644
ltoes 9.13389
95
root -3.9011 17.267 0.833257 146.64 -79.822 -162.294
lowerback 25.678 -5.90561 -0.747187
upperback 6.18441 -8.43542 0.321908
thorax -7.10513 -4.31424 3.40386
lowerneck 3.17721 8.6186 0.132092
upperneck 8.57356 11.6429 -6.53194
head 2.64601 5.51526 -1.94497
rclavicle 4.22169e-014 -5.36719e-015
rhumerus -28.8963 27.8136 -95.9312
rradius 77.3028
rwrist -2.63341
rhand -35.2652 38.4883
rfingers 7.12502
rthumb -8.40072 8.6754
lclavicle 4.22169e-014 -5.36719e-015
lhumerus -9.14723 -16.9695 77.0312
lradius 107.12
lwrist 39.9869
lhand -13.7446 -7.59713
lfingers 7.12502
lthumb 12.3753 22.0166
rfemur -17.6494 4.14158 15.2171
rtibia 51.7709
rfoot 5.83216 -5.89931
rtoes -9.4508
lfemur 1.26576 -8.9325 -19.8286
ltibia 33.7576
lfoot -28.813 12.908
ltoes 9.02124
